<svg width="546.4475585937499px" height="165.22252197265624px" xmlns="http://www.w3.org/2000/svg" viewBox="-23.223779296874966 -7.611260986328119 546.4475585937499 165.22252197265624" style="background: rgba(0, 0, 0, 0);" preserveAspectRatio="xMidYMid"><defs><filter id="editing-extrusion" x="-100%" y="-100%" width="300%" height="300%"><feFlood result="color1" flood-color="#444"></feFlood><feConvolveMatrix order="8,8" divisor="1" kernelMatrix="1 0 0 0 0 0 0 0 0 1 0 0 0 0 0 0 0 0 1 0 0 0 0 0 0 0 0 1 0 0 0 0 0 0 0 0 1 0 0 0 0 0 0 0 0 1 0 0 0 0 0 0 0 0 1 0 0 0 0 0 0 0 0 1" in="SourceAlpha" result="extrude"></feConvolveMatrix><feComposite in="color1" in2="extrude" result="comp-extrude" operator="in"></feComposite><feOffset dx="4" dy="4" in="comp-extrude" result="offset-extrude"></feOffset><feMerge><feMergeNode in="offset-extrude"></feMergeNode><feMergeNode in="SourceGraphic"></feMergeNode></feMerge></filter></defs><g filter="url(#editing-extrusion)"><g transform="translate(57.535001277923584, 113.80500030517578)"><path d="M46.49-47.89L46.49-60.68L72.07-60.68L72.07-47.89L68.17-47.89L68.17 0L46.25 0L23.40-35.18L23.40-12.79L27.14-12.79L27.14 0L1.56 0L1.56-12.79L5.46-12.79L5.46-47.89L1.56-47.89L1.56-60.68L29.72-60.68L50.23-29.41L50.23-47.89L46.49-47.89ZM116.92-12.79L120.35-12.79L120.35 0L99.76 0L99.76-5.30L99.76-5.30Q98.05-2.81 94.97-0.86L94.97-0.86L94.97-0.86Q91.88 1.09 87.44 1.09L87.44 1.09L87.44 1.09Q81.59 1.09 78.23-2.03L78.23-2.03L78.23-2.03Q74.88-5.15 74.88-10.84L74.88-10.84L74.88-10.84Q74.88-25.58 99.92-25.97L99.92-25.97L99.92-25.97Q99.68-28.63 97.89-29.60L97.89-29.60L97.89-29.60Q96.10-30.58 91.81-30.58L91.81-30.58L91.81-30.58Q88.30-30.58 84.28-29.84L84.28-29.84L84.28-29.84Q80.26-29.09 76.91-27.85L76.91-27.85L76.91-42.20L76.91-42.20Q81.04-43.21 85.88-43.84L85.88-43.84L85.88-43.84Q90.71-44.46 95.32-44.46L95.32-44.46L95.32-44.46Q106.94-44.46 111.93-40.25L111.93-40.25L111.93-40.25Q116.92-36.04 116.92-27.22L116.92-27.22L116.92-12.79ZM99.76-17.78L99.76-18.25L99.76-18.25Q96.25-18.25 94.34-17.32L94.34-17.32L94.34-17.32Q92.43-16.38 92.43-14.20L92.43-14.20L92.43-14.20Q92.43-12.87 93.25-12.05L93.25-12.05L93.25-12.05Q94.07-11.23 95.55-11.23L95.55-11.23L95.55-11.23Q97.58-11.23 98.67-12.95L98.67-12.95L98.67-12.95Q99.76-14.66 99.76-17.78L99.76-17.78ZM148.12-43.37L169.81-43.37L169.81-30.58L166.84-30.58L156.62-3.51L156.62-3.51Q152.80 6.71 147.89 11.82L147.89 11.82L147.89 11.82Q142.97 16.93 134.94 16.93L134.94 16.93L134.94 16.93Q131.66 16.93 128.31 16.26L128.31 16.26L128.31 16.26Q124.96 15.60 122.23 14.43L122.23 14.43L122.23 0.31L132.99 0.31L132.99 1.09L132.99 1.09Q132.99 3.04 135.02 3.04L135.02 3.04L135.02 3.04Q136.81 3.04 137.75 1.33L137.75 1.33L125.42-30.58L122.46-30.58L122.46-43.37L145.63-43.37L145.63-30.58L142.97-30.58L147.03-18.41L150.77-30.58L148.12-30.58L148.12-43.37ZM195.39 1.09L195.39 1.09Q184.31 1.09 178.07-4.72L178.07-4.72L178.07-4.72Q171.83-10.53 171.83-21.68L171.83-21.68L171.83-21.68Q171.83-32.84 178.07-38.65L178.07-38.65L178.07-38.65Q184.31-44.46 195.39-44.46L195.39-44.46L195.39-44.46Q206.39-44.46 211.26-38.73L211.26-38.73L211.26-38.73Q216.14-32.99 216.14-24.49L216.14-24.49L216.14-18.88L190.87-18.88L190.87-18.41L190.87-18.41Q190.87-15.52 192.58-14.16L192.58-14.16L192.58-14.16Q194.30-12.79 198.28-12.79L198.28-12.79L198.28-12.79Q203.03-12.79 207.32-13.49L207.32-13.49L207.32-13.49Q211.61-14.20 214.81-15.29L214.81-15.29L214.81-2.81L214.81-2.81Q212.08-1.33 206.82-0.12L206.82-0.12L206.82-0.12Q201.55 1.09 195.39 1.09L195.39 1.09ZM190.87-27.46L199.91-27.46L199.91-28.39L199.91-28.39Q199.91-31.04 198.78-32.21L198.78-32.21L198.78-32.21Q197.65-33.38 195.39-33.38L195.39-33.38L195.39-33.38Q193.13-33.38 192.00-32.17L192.00-32.17L192.00-32.17Q190.87-30.97 190.87-28.39L190.87-28.39L190.87-27.46ZM241.72 1.09L241.72 1.09Q230.65 1.09 224.41-4.72L224.41-4.72L224.41-4.72Q218.17-10.53 218.17-21.68L218.17-21.68L218.17-21.68Q218.17-32.84 224.41-38.65L224.41-38.65L224.41-38.65Q230.65-44.46 241.72-44.46L241.72-44.46L241.72-44.46Q252.72-44.46 257.59-38.73L257.59-38.73L257.59-38.73Q262.47-32.99 262.47-24.49L262.47-24.49L262.47-18.88L237.20-18.88L237.20-18.41L237.20-18.41Q237.20-15.52 238.91-14.16L238.91-14.16L238.91-14.16Q240.63-12.79 244.61-12.79L244.61-12.79L244.61-12.79Q249.37-12.79 253.66-13.49L253.66-13.49L253.66-13.49Q257.95-14.20 261.14-15.29L261.14-15.29L261.14-2.81L261.14-2.81Q258.41-1.33 253.15-0.12L253.15-0.12L253.15-0.12Q247.88 1.09 241.72 1.09L241.72 1.09ZM237.20-27.46L246.25-27.46L246.25-28.39L246.25-28.39Q246.25-31.04 245.11-32.21L245.11-32.21L245.11-32.21Q243.98-33.38 241.72-33.38L241.72-33.38L241.72-33.38Q239.46-33.38 238.33-32.17L238.33-32.17L238.33-32.17Q237.20-30.97 237.20-28.39L237.20-28.39L237.20-27.46ZM340.16-12.79L343.59-12.79L343.59 0L318.94 0L318.94-12.79L322.22-12.79L322.22-25.58L322.22-25.58Q322.22-28.16 321.13-29.37L321.13-29.37L321.13-29.37Q320.03-30.58 317.85-30.58L317.85-30.58L317.85-30.58Q313.17-30.58 313.17-25.58L313.17-25.58L313.17-12.79L316.45-12.79L316.45 0L291.95 0L291.95-12.79L295.23-12.79L295.23-25.58L295.23-25.58Q295.23-28.16 294.14-29.37L294.14-29.37L294.14-29.37Q293.05-30.58 290.86-30.58L290.86-30.58L290.86-30.58Q286.18-30.58 286.18-25.58L286.18-25.58L286.18-12.79L289.46-12.79L289.46 0L264.81 0L264.81-12.79L268.24-12.79L268.24-30.58L264.81-30.58L264.81-43.37L286.18-43.37L286.18-37.28L286.18-37.28Q291.80-44.46 300.22-44.46L300.22-44.46L300.22-44.46Q304.98-44.46 307.98-42.24L307.98-42.24L307.98-42.24Q310.99-40.01 312.23-35.96L312.23-35.96L312.23-35.96Q315.04-40.01 318.67-42.20L318.67-42.20L318.67-42.20Q322.30-44.38 327.21-44.38L327.21-44.38L327.21-44.38Q333.68-44.38 336.92-40.33L336.92-40.33L336.92-40.33Q340.16-36.27 340.16-29.17L340.16-29.17L340.16-12.79ZM383.37 0L371.20 0L371.20-12.79L383.37-12.79L383.37 0Z" fill="#ccc"></path></g></g><style>text {
  font-size: 64px;
  font-family: Arial Black;
  dominant-baseline: central;
  text-anchor: middle;
}</style></svg>